<svg xmlns="http://www.w3.org/2000/svg" fill="none" viewBox="0 0 512 512" width="64" height="64"><defs><filter id="d" width="140%" height="140%" x="-20%" y="-20%"><feGaussianBlur result="blur" stdDeviation="8"/><feComposite in="SourceGraphic" in2="blur"/></filter><filter id="b" width="120%" height="120%" x="-10%" y="-10%"><feOffset dy="4"/><feGaussianBlur result="blur" stdDeviation="6"/><feComposite in="SourceGraphic" in2="blur"/><feDropShadow dx="0" dy="-2" flood-color="#000" flood-opacity=".2" stdDeviation="4"/></filter><filter id="g" width="160%" height="160%" x="-30%" y="-30%"><feGaussianBlur result="blur" stdDeviation="3"/><feComposite in="SourceGraphic" in2="blur"/><feDropShadow dx="0" dy="0" flood-color="#fff" flood-opacity=".5" stdDeviation="5"/></filter><filter id="e" width="200%" height="200%" x="-50%" y="-50%"><feGaussianBlur result="blur" stdDeviation="2"/><feComposite in="SourceGraphic" in2="blur"/></filter><linearGradient id="a" x1="50" x2="462" y1="50" y2="462" gradientUnits="userSpaceOnUse"><stop offset="0" stop-color="#3b82f6"/><stop offset=".3" stop-color="#2563EB"/><stop offset=".6" stop-color="#4F46E5"/><stop offset="1" stop-color="#7C3AED"/></linearGradient><linearGradient id="f" x1="140" x2="280" y1="240" y2="300" gradientUnits="userSpaceOnUse"><stop offset="0" stop-color="#fff"/><stop offset="1" stop-color="#e2e8f0"/></linearGradient><radialGradient id="c" cx="40%" cy="40%" r="60%" fx="40%" fy="40%"><stop offset="0%" stop-color="#fff" stop-opacity=".25"/><stop offset="100%" stop-color="#fff" stop-opacity="0"/></radialGradient></defs><circle cx="256" cy="256" r="240" fill="url(#a)" filter="url(#b)"/><circle cx="256" cy="256" r="220" fill="url(#c)" opacity=".7"/><g stroke="#fff" stroke-width="2" filter="url(#d)" opacity=".25"><path d="M256 16s144 84 144 240-144 240-144 240M256 16s-144 84-144 240 144 240 144 240"/><ellipse cx="256" cy="256" rx="180" ry="240"/><ellipse cx="256" cy="256" rx="120" ry="240"/><ellipse cx="256" cy="256" rx="60" ry="240"/><circle cx="256" cy="256" r="240"/><path d="M16 256h480M16 176h480M16 336h480"/></g><circle cx="180" cy="180" r="8" fill="#fff" filter="url(#e)"/><circle cx="320" cy="200" r="8" fill="#fff" filter="url(#e)"/><circle cx="220" cy="300" r="8" fill="#fff" filter="url(#e)"/><circle cx="350" cy="320" r="8" fill="#fff" filter="url(#e)"/><circle cx="150" cy="350" r="8" fill="#fff" filter="url(#e)"/><g stroke="#fff" stroke-width="2" filter="url(#d)" opacity=".9"><path d="m180 180 140 20M320 200 220 300M220 300l130 20M350 320l-200 30M150 350l30-170"/></g><g fill="url(#f)" filter="url(#b)" transform="translate(140 240)"><path d="M0 0h60v10L20 50h40v10H0V50l40-40H0zM70 0h10l20 25 20-25h10l-25 30v30H95V30zM140 0h10l15 40 15-30 15 30 15-40h10l-20 60h-10l-10-25-10 25h-10zM230 0h50v10h-40v15h30v10h-30v15h40v10h-50z"/></g><path fill="url(#f)" d="m256 110 34 50h-34l-16 30-18-30h34z" filter="url(#g)"/></svg>